<svg width="22" height="22" viewBox="0 0 22 22" fill="none" xmlns="http://www.w3.org/2000/svg">
<path d="M19.4063 0H2.59546C1.9071 0 1.24693 0.273449 0.760191 0.760191C0.273449 1.24693 0 1.9071 0 2.59546V19.4045C0 20.0929 0.273449 20.7531 0.760191 21.2398C1.24693 21.7266 1.9071 22 2.59546 22H19.4045C20.0929 22 20.7531 21.7266 21.2398 21.2398C21.7266 20.7531 22 20.0929 22 19.4045V2.59546C22 1.90741 21.7268 1.24751 21.2404 0.76082C20.7541 0.274129 20.0944 0.00047159 19.4063 0ZM13.8223 5.47198H18.8709V6.98051H13.8223V5.47198ZM11.2695 13.3775C11.2695 17.1133 7.38255 16.9905 7.38255 16.9905H1.01399V4.75152H7.38255C9.31802 4.75152 10.8461 5.81887 10.8461 8.01051C10.8461 10.2022 8.97825 10.3391 8.97825 10.3391C11.4403 10.3391 11.2695 13.3775 11.2695 13.3775ZM20.7138 13.1783H14.3809C14.3809 15.4518 16.5351 15.313 16.5351 15.313C18.5684 15.313 18.492 13.9966 18.492 13.9966H20.6427C20.6427 17.4904 16.4551 17.2503 16.4551 17.2503C11.4296 17.2503 11.7534 12.5717 11.7534 12.5717C11.7534 12.5717 11.7534 7.86998 16.4551 7.86998C21.4094 7.86642 20.7156 13.1783 20.7156 13.1783H20.7138Z" fill="#B5B5B5"/>
</svg>
