<svg width="1440" height="403" viewBox="0 0 1440 403" fill="none" xmlns="http://www.w3.org/2000/svg">
<path d="M517 1.5L-877.966 401.5" stroke="#B3B3B3" stroke-opacity="0.1" stroke-width="3"/>
<path d="M545.57 1.5L-254.207 401.5" stroke="#B3B3B3" stroke-opacity="0.1" stroke-width="3"/>
<path d="M574.141 1.5L46.0673 401.5" stroke="#B3B3B3" stroke-opacity="0.1" stroke-width="3"/>
<path d="M602.711 1.5L238.921 401.5" stroke="#B3B3B3" stroke-opacity="0.1" stroke-width="3"/>
<path d="M631.281 1.5L384.098 401.5" stroke="#B3B3B3" stroke-opacity="0.1" stroke-width="3"/>
<path d="M659.852 1.5L505.161 401.5" stroke="#B3B3B3" stroke-opacity="0.1" stroke-width="3"/>
<path d="M688.43 1.5L613.778 401.5" stroke="#B3B3B3" stroke-opacity="0.1" stroke-width="3"/>
<path d="M717 1.5V401.5" stroke="#B3B3B3" stroke-opacity="0.1" stroke-width="3"/>
<path d="M745.57 1.5L820.222 401.5" stroke="#B3B3B3" stroke-opacity="0.1" stroke-width="3"/>
<path d="M774.141 1.5L928.832 401.5" stroke="#B3B3B3" stroke-opacity="0.1" stroke-width="3"/>
<path d="M802.711 1.5L1049.89 401.5" stroke="#B3B3B3" stroke-opacity="0.1" stroke-width="3"/>
<path d="M831.281 1.5L1195.07 401.5" stroke="#B3B3B3" stroke-opacity="0.1" stroke-width="3"/>
<path d="M859.852 1.5L1387.92 401.5" stroke="#B3B3B3" stroke-opacity="0.1" stroke-width="3"/>
<path d="M888.43 1.5L1688.21 401.5" stroke="#B3B3B3" stroke-opacity="0.1" stroke-width="3"/>
<path d="M917 1.5L2311.97 401.5" stroke="#B3B3B3" stroke-opacity="0.1" stroke-width="3"/>
<path d="M517 1.5H917" stroke="#B3B3B3" stroke-opacity="0.1" stroke-width="3"/>
<path d="M517 1.5H917" stroke="#B3B3B3" stroke-opacity="0.1" stroke-width="3"/>
<path d="M517 1.5H917" stroke="#B3B3B3" stroke-opacity="0.1" stroke-width="3"/>
<path d="M517 1.5H917" stroke="#B3B3B3" stroke-opacity="0.1" stroke-width="3"/>
<path d="M517 1.5H917" stroke="#B3B3B3" stroke-opacity="0.1" stroke-width="3"/>
<path d="M517 1.5H917" stroke="#B3B3B3" stroke-opacity="0.1" stroke-width="3"/>
<path d="M517 1.5H917" stroke="#B3B3B3" stroke-opacity="0.1" stroke-width="3"/>
<path d="M517 1.5H917" stroke="#B3B3B3" stroke-opacity="0.1" stroke-width="3"/>
<path d="M517 1.5H917.001" stroke="#B3B3B3" stroke-opacity="0.1" stroke-width="3"/>
<path d="M516.992 1.5H916.996" stroke="#B3B3B3" stroke-opacity="0.1" stroke-width="3"/>
<path d="M516.992 1.5H917.001" stroke="#B3B3B3" stroke-opacity="0.1" stroke-width="3"/>
<path d="M516.984 1.50391H917.005" stroke="#B3B3B3" stroke-opacity="0.1" stroke-width="3"/>
<path d="M516.977 1.50391H917.019" stroke="#B3B3B3" stroke-opacity="0.1" stroke-width="3"/>
<path d="M516.953 1.51172H917.035" stroke="#B3B3B3" stroke-opacity="0.1" stroke-width="3"/>
<path d="M516.922 1.51953H917.075" stroke="#B3B3B3" stroke-opacity="0.1" stroke-width="3"/>
<path d="M516.859 1.53906H917.133" stroke="#B3B3B3" stroke-opacity="0.1" stroke-width="3"/>
<path d="M516.758 1.56641H917.229" stroke="#B3B3B3" stroke-opacity="0.1" stroke-width="3"/>
<path d="M516.602 1.61328H917.386" stroke="#B3B3B3" stroke-opacity="0.1" stroke-width="3"/>
<path d="M516.367 1.67969H917.635" stroke="#B3B3B3" stroke-opacity="0.1" stroke-width="3"/>
<path d="M516 1.78516H917.996" stroke="#B3B3B3" stroke-opacity="0.1" stroke-width="3"/>
<path d="M515.461 1.94141H918.532" stroke="#B3B3B3" stroke-opacity="0.1" stroke-width="3"/>
<path d="M514.688 2.16406H919.314" stroke="#B3B3B3" stroke-opacity="0.1" stroke-width="3"/>
<path d="M513.578 2.48047H920.417" stroke="#B3B3B3" stroke-opacity="0.1" stroke-width="3"/>
<path d="M512.031 2.92188H921.965" stroke="#B3B3B3" stroke-opacity="0.1" stroke-width="3"/>
<path d="M509.898 3.53516H924.102" stroke="#B3B3B3" stroke-opacity="0.1" stroke-width="3"/>
<path d="M506.992 4.36719H927.005" stroke="#B3B3B3" stroke-opacity="0.1" stroke-width="3"/>
<path d="M503.086 5.48828H930.908" stroke="#B3B3B3" stroke-opacity="0.1" stroke-width="3"/>
<path d="M497.898 6.97656H936.099" stroke="#B3B3B3" stroke-opacity="0.1" stroke-width="3"/>
<path d="M491.07 8.93359H942.919" stroke="#B3B3B3" stroke-opacity="0.1" stroke-width="3"/>
<path d="M482.188 11.4805H951.81" stroke="#B3B3B3" stroke-opacity="0.1" stroke-width="3"/>
<path d="M470.719 14.7695H963.28" stroke="#B3B3B3" stroke-opacity="0.1" stroke-width="3"/>
<path d="M456.039 18.9766H977.951" stroke="#B3B3B3" stroke-opacity="0.1" stroke-width="3"/>
<path d="M437.414 24.3203H996.587" stroke="#B3B3B3" stroke-opacity="0.1" stroke-width="3"/>
<path d="M413.938 31.0508H1020.06" stroke="#B3B3B3" stroke-opacity="0.1" stroke-width="3"/>
<path d="M384.562 39.4727H1049.43" stroke="#B3B3B3" stroke-opacity="0.1" stroke-width="3"/>
<path d="M348.047 49.9453H1085.94" stroke="#B3B3B3" stroke-opacity="0.1" stroke-width="3"/>
<path d="M302.945 62.8789H1131.05" stroke="#B3B3B3" stroke-opacity="0.1" stroke-width="3"/>
<path d="M247.547 78.7617H1186.44" stroke="#B3B3B3" stroke-opacity="0.1" stroke-width="3"/>
<path d="M179.898 98.1602H1254.1" stroke="#B3B3B3" stroke-opacity="0.1" stroke-width="3"/>
<path d="M97.6992 121.73H1336.29" stroke="#B3B3B3" stroke-opacity="0.1" stroke-width="3"/>
<path d="M-1.66406 150.223H1435.66" stroke="#B3B3B3" stroke-opacity="0.1" stroke-width="3"/>
<path d="M-121.211 184.504H1555.21" stroke="#B3B3B3" stroke-opacity="0.1" stroke-width="3"/>
<path d="M-264.402 225.562H1698.39" stroke="#B3B3B3" stroke-opacity="0.1" stroke-width="3"/>
<path d="M-435.172 274.527H1869.16" stroke="#B3B3B3" stroke-opacity="0.1" stroke-width="3"/>
<path d="M-638 332.691H2071.99" stroke="#B3B3B3" stroke-opacity="0.1" stroke-width="3"/>
<path d="M-877.969 401.5H2311.96" stroke="#B3B3B3" stroke-opacity="0.1" stroke-width="3"/>
</svg>
