<svg width="22" height="22" viewBox="0 0 22 22" fill="none" xmlns="http://www.w3.org/2000/svg">
<path d="M16.9829 0H5.01713C3.6865 0 2.41038 0.528589 1.46948 1.46948C0.528589 2.41038 0 3.6865 0 5.01713V16.9829C0 18.3135 0.528589 19.5896 1.46948 20.5305C2.41038 21.4714 3.6865 22 5.01713 22H16.9829C18.3135 22 19.5896 21.4714 20.5305 20.5305C21.4714 19.5896 22 18.3135 22 16.9829V5.01713C22 3.6865 21.4714 2.41038 20.5305 1.46948C19.5896 0.528589 18.3135 0 16.9829 0ZM7.43826 17.7602C7.44179 17.8216 7.43274 17.8831 7.41165 17.9409C7.39056 17.9987 7.35788 18.0515 7.31562 18.0962C7.27335 18.1409 7.2224 18.1765 7.16588 18.2008C7.10937 18.2251 7.04849 18.2375 6.98697 18.2374H4.97877C4.85766 18.2345 4.74255 18.1841 4.65817 18.0972C4.57378 18.0103 4.52686 17.8938 4.52749 17.7726V9.42051C4.52583 9.36021 4.53628 9.30019 4.55821 9.244C4.58015 9.18781 4.61312 9.13658 4.6552 9.09336C4.69727 9.05013 4.74758 9.01577 4.80316 8.99232C4.85873 8.96887 4.91845 8.9568 4.97877 8.95682H6.98697C7.0473 8.9568 7.10701 8.96887 7.16259 8.99232C7.21817 9.01577 7.26848 9.05013 7.31055 9.09336C7.35262 9.13658 7.3856 9.18781 7.40753 9.244C7.42947 9.30019 7.43992 9.36021 7.43826 9.42051V17.7602ZM5.94564 7.20021C5.72822 7.19858 5.51325 7.15414 5.313 7.06943C5.11275 6.98472 4.93115 6.8614 4.77856 6.7065C4.62597 6.55161 4.50539 6.36818 4.42369 6.16669C4.34199 5.96519 4.30078 5.74958 4.30241 5.53215C4.30404 5.31473 4.34848 5.09976 4.43319 4.89951C4.5179 4.69926 4.64122 4.51766 4.79611 4.36507C4.951 4.21249 5.13444 4.0919 5.33593 4.0102C5.53743 3.9285 5.75304 3.88729 5.97046 3.88892C6.40202 3.90296 6.81101 4.08509 7.11016 4.39645C7.40931 4.70782 7.57493 5.12377 7.5717 5.55554C7.56846 5.98731 7.39661 6.40073 7.09282 6.70757C6.78903 7.01441 6.37736 7.19039 5.94564 7.19795M18.1494 17.7467C18.1489 17.8607 18.1042 17.97 18.0246 18.0517C17.9451 18.1333 17.8369 18.1809 17.723 18.1844H15.6031C15.4889 18.1809 15.3806 18.1331 15.3011 18.0513C15.2215 17.9694 15.1769 17.8597 15.1766 17.7455V13.8826C15.1766 13.3061 15.3526 11.3746 13.6468 11.3746C12.3166 11.3746 12.0537 12.7284 12.003 13.3309V17.8335C12.003 17.9479 11.9585 18.0578 11.8789 18.14C11.7993 18.2221 11.6908 18.27 11.5765 18.2735H9.5198C9.4033 18.2732 9.29167 18.2268 9.2094 18.1443C9.12712 18.0618 9.08092 17.95 9.08092 17.8335V9.3799C9.08444 9.26556 9.13235 9.1571 9.21449 9.07749C9.29663 8.99788 9.40654 8.95338 9.52092 8.95344H11.5765C11.6909 8.95338 11.8008 8.99788 11.883 9.07749C11.9651 9.1571 12.013 9.26556 12.0165 9.3799V10.1076C12.3167 9.66829 12.731 9.31927 13.215 9.09819C13.6989 8.8771 14.234 8.79233 14.7626 8.85303C18.1867 8.85303 18.1743 12.0515 18.1743 13.8702L18.1494 17.7467Z" fill="#B5B5B5"/>
</svg>
