<svg width="37" height="33" viewBox="0 0 37 33" fill="none" xmlns="http://www.w3.org/2000/svg">
    <path d="M27.0718 8.17383L7.18075 27.805C7.18075 27.805 1.73812 22.8812 2.06223 15.236C2.38634 7.59083 16.4455 -6.33886 27.0718 8.17383Z" fill="#E0E3E6"/>
    <path d="M15.8338 18.1441C15.4089 18.1441 14.985 17.982 14.6609 17.6579L8.38528 11.3823C7.73707 10.7341 7.73707 9.68369 8.38528 9.03647C9.0335 8.38825 10.0839 8.38825 10.7311 9.03647L17.0067 15.3121C17.6549 15.9603 17.6549 17.0107 17.0067 17.6579C16.6826 17.982 16.2577 18.1441 15.8338 18.1441Z" fill="#191B1E"/>
    <path d="M15.6797 18.3289H6.88432C5.96832 18.3289 5.22524 17.5858 5.22524 16.6698C5.22524 15.7538 5.96832 15.0107 6.88432 15.0107H15.6797C16.5957 15.0107 17.3387 15.7538 17.3387 16.6698C17.3387 17.5858 16.5957 18.3289 15.6797 18.3289Z" fill="#191B1E"/>
    <path d="M16.0186 17.8901C15.1026 17.8901 14.3595 17.147 14.3595 16.231V7.5345C14.3595 6.61851 15.1026 5.87543 16.0186 5.87543C16.9346 5.87543 17.6777 6.61851 17.6777 7.5345V16.231C17.6777 17.147 16.9346 17.8901 16.0186 17.8901Z" fill="#191B1E"/>
    <path d="M20.985 32.97C20.1282 32.97 19.2854 32.9473 18.484 32.9255C17.7557 32.9058 17.068 32.887 16.4435 32.887C15.5463 32.887 14.82 32.1597 14.82 31.2635C14.82 30.3673 15.5473 29.64 16.4435 29.64C17.1125 29.64 17.8219 29.6598 18.5729 29.6795C21.7656 29.7665 25.7398 29.8752 27.4256 28.3811C28.388 27.5284 28.5718 25.2991 28.7349 23.3318C28.8357 22.1094 28.9404 20.8456 29.224 19.7429C29.4108 19.0176 30.0669 18.5136 30.8169 18.5235L32.4087 18.5433L26.8386 8.31513C25.642 6.78748 24.0995 5.52267 22.3723 4.65212C20.5245 3.7213 18.5294 3.24898 16.4435 3.24898C12.9188 3.24898 9.60563 4.62149 7.11257 7.11356C4.6205 9.60563 3.24799 12.9198 3.24799 16.4445C3.24799 18.6421 3.79838 20.816 4.83987 22.733C5.16398 23.3308 5.53551 23.9029 5.94855 24.4444L21.3298 9.06216C21.9642 8.42778 22.9918 8.42778 23.6262 9.06216C24.2606 9.69654 24.2606 10.7242 23.6262 11.3586L7.36059 27.6242L7.07305 27.9365C6.77167 28.2635 6.34973 28.4523 5.90507 28.4602C5.46239 28.4681 5.03255 28.2922 4.72129 27.975C4.56319 27.8139 4.40608 27.6479 4.2549 27.4809C3.37348 26.5086 2.61064 25.4325 1.98516 24.2823C0.686751 21.8911 0 19.1806 0 16.4435C0 12.0513 1.71046 7.92185 4.81615 4.81615C7.92185 1.71046 12.0513 0 16.4435 0C19.0423 0 21.5284 0.588926 23.8337 1.75097C26.0313 2.85768 27.9869 4.47722 29.4898 6.43274C29.5412 6.49993 29.5876 6.57108 29.6281 6.64519L36.5866 19.4237C36.8623 19.9296 36.8494 20.5442 36.551 21.0383C36.2526 21.5324 35.719 21.8308 35.1399 21.8239L32.1449 21.7873C32.0728 22.3515 32.0224 22.9652 31.97 23.5986C31.7576 26.1746 31.5155 29.0945 29.5777 30.8109C27.4958 32.6558 24.1499 32.969 20.985 32.969V32.97Z" fill="#E0E3E6"/>
</svg>
