<svg width="144" height="137" viewBox="0 0 144 137" fill="none"
  xmlns="http://www.w3.org/2000/svg">
  <path d="M132 49.8462C132 93.8077 82 128 82 128C82 128 32 93.8077 32 49.8462C32 36.8913 37.2678 24.4671 46.6447 15.3067C56.0215 6.14628 68.7392 1 82 1C95.2608 1 107.979 6.14628 117.355 15.3067C126.732 24.4671 132 36.8913 132 49.8462V49.8462Z" fill="black" stroke="black" stroke-linecap="round" stroke-linejoin="round"/>
  <rect width="2" height="20" transform="translate(76 23)" fill="white"/>
  <rect x="76" y="23" width="2" height="20" fill="white"/>
  <rect width="2" height="20" transform="translate(56 46)" fill="white"/>
  <rect x="56" y="46" width="2" height="20" fill="white"/>
  <rect width="2" height="20" transform="translate(89 46)" fill="white"/>
  <rect x="89" y="46" width="2" height="20" fill="white"/>
  <rect width="2" height="20" transform="translate(99 46)" fill="white"/>
  <rect x="99" y="46" width="2" height="20" fill="white"/>
  <rect width="2" height="20" transform="translate(102 46)" fill="white"/>
  <rect x="102" y="46" width="2" height="20" fill="white"/>
  <rect width="2" height="20" transform="translate(73 46)" fill="white"/>
  <rect x="73" y="46" width="2" height="20" fill="white"/>
  <rect width="2" height="20" transform="translate(56 69)" fill="white"/>
  <rect x="56" y="69" width="2" height="20" fill="white"/>
  <rect width="2" height="20" transform="translate(62 69)" fill="white"/>
  <rect x="62" y="69" width="2" height="20" fill="white"/>
  <rect width="2" height="20" transform="translate(65 69)" fill="white"/>
  <rect x="65" y="69" width="2" height="20" fill="white"/>
  <rect width="2" height="20" transform="translate(68 69)" fill="white"/>
  <rect x="68" y="69" width="2" height="20" fill="white"/>
  <rect width="2" height="20" transform="translate(71 69)" fill="white"/>
  <rect x="71" y="69" width="2" height="20" fill="white"/>
  <rect width="2" height="20" transform="translate(87 69)" fill="white"/>
  <rect x="87" y="69" width="2" height="20" fill="white"/>
  <rect width="2" height="20" transform="translate(90 69)" fill="white"/>
  <rect x="90" y="69" width="2" height="20" fill="white"/>
  <rect width="2" height="20" transform="translate(93 69)" fill="white"/>
  <rect x="93" y="69" width="2" height="20" fill="white"/>
  <rect width="2" height="20" transform="translate(96 69)" fill="white"/>
  <rect x="96" y="69" width="2" height="20" fill="white"/>
  <rect width="2" height="20" transform="translate(99 69)" fill="white"/>
  <rect x="99" y="69" width="2" height="20" fill="white"/>
  <rect width="2" height="20" transform="translate(102 69)" fill="white"/>
  <rect x="102" y="69" width="2" height="20" fill="white"/>
  <rect width="2" height="20" transform="translate(59 69)" fill="white"/>
  <rect x="59" y="69" width="2" height="20" fill="white"/>
  <rect width="6" height="20" transform="translate(69 23)" fill="white"/>
  <rect x="69" y="23" width="6" height="20" fill="white"/>
  <rect width="6" height="20" transform="translate(59 46)" fill="white"/>
  <rect x="59" y="46" width="6" height="20" fill="white"/>
  <rect width="12" height="20" transform="translate(56 23)" fill="white"/>
  <rect width="12" height="20" transform="translate(79 23)" fill="white"/>
  <rect width="12" height="20" transform="translate(92 23)" fill="white"/>
  <rect width="12" height="20" transform="translate(76 46)" fill="white"/>
  <rect width="12" height="20" transform="translate(74 69)" fill="white"/>
  <rect x="66" y="46" width="6" height="20" fill="white"/>
  <rect x="92" y="46" width="6" height="20" fill="white"/>
  <path d="M132 49.8462C132 93.8077 82 128 82 128C82 128 32 93.8077 32 49.8462C32 36.8913 37.2678 24.4671 46.6447 15.3067C56.0215 6.14628 68.7392 1 82 1C95.2608 1 107.979 6.14628 117.355 15.3067C126.732 24.4671 132 36.8913 132 49.8462V49.8462Z" fill="black"/>
  <rect width="2" height="20" transform="translate(76 23)" fill="white"/>
  <rect x="76" y="23" width="2" height="20" fill="white"/>
  <rect width="2" height="20" transform="translate(56 46)" fill="white"/>
  <rect x="56" y="46" width="2" height="20" fill="white"/>
  <rect width="2" height="20" transform="translate(89 46)" fill="white"/>
  <rect x="89" y="46" width="2" height="20" fill="white"/>
  <rect width="2" height="20" transform="translate(99 46)" fill="white"/>
  <rect x="99" y="46" width="2" height="20" fill="white"/>
  <rect width="2" height="20" transform="translate(102 46)" fill="white"/>
  <rect x="102" y="46" width="2" height="20" fill="white"/>
  <rect width="2" height="20" transform="translate(73 46)" fill="white"/>
  <rect x="73" y="46" width="2" height="20" fill="white"/>
  <rect width="2" height="20" transform="translate(56 69)" fill="white"/>
  <rect x="56" y="69" width="2" height="20" fill="white"/>
  <rect width="2" height="20" transform="translate(62 69)" fill="white"/>
  <rect x="62" y="69" width="2" height="20" fill="white"/>
  <rect width="2" height="20" transform="translate(65 69)" fill="white"/>
  <rect x="65" y="69" width="2" height="20" fill="white"/>
  <rect width="2" height="20" transform="translate(68 69)" fill="white"/>
  <rect x="68" y="69" width="2" height="20" fill="white"/>
  <rect width="2" height="20" transform="translate(71 69)" fill="white"/>
  <rect x="71" y="69" width="2" height="20" fill="white"/>
  <rect width="2" height="20" transform="translate(87 69)" fill="white"/>
  <rect x="87" y="69" width="2" height="20" fill="white"/>
  <rect width="2" height="20" transform="translate(90 69)" fill="white"/>
  <rect x="90" y="69" width="2" height="20" fill="white"/>
  <rect width="2" height="20" transform="translate(93 69)" fill="white"/>
  <rect x="93" y="69" width="2" height="20" fill="white"/>
  <rect width="2" height="20" transform="translate(96 69)" fill="white"/>
  <rect x="96" y="69" width="2" height="20" fill="white"/>
  <rect width="2" height="20" transform="translate(99 69)" fill="white"/>
  <rect x="99" y="69" width="2" height="20" fill="white"/>
  <rect width="2" height="20" transform="translate(102 69)" fill="white"/>
  <rect x="102" y="69" width="2" height="20" fill="white"/>
  <rect width="2" height="20" transform="translate(59 69)" fill="white"/>
  <rect x="59" y="69" width="2" height="20" fill="white"/>
  <rect width="6" height="20" transform="translate(69 23)" fill="white"/>
  <rect x="69" y="23" width="6" height="20" fill="white"/>
  <rect width="6" height="20" transform="translate(59 46)" fill="white"/>
  <rect x="59" y="46" width="6" height="20" fill="white"/>
  <rect width="12" height="20" transform="translate(56 23)" fill="white"/>
  <rect width="12" height="20" transform="translate(79 23)" fill="white"/>
  <rect width="12" height="20" transform="translate(92 23)" fill="white"/>
  <rect width="12" height="20" transform="translate(76 46)" fill="white"/>
  <rect width="12" height="20" transform="translate(74 69)" fill="white"/>
  <rect x="66" y="46" width="6" height="20" fill="white"/>
  <rect x="92" y="46" width="6" height="20" fill="white"/>
</svg>
