<svg width="22" height="22" viewBox="0 0 22 22" fill="none" xmlns="http://www.w3.org/2000/svg">
<path d="M3.85978 0H18.1402C19.1637 0.000647566 20.1451 0.407509 20.8688 1.13122C21.5925 1.85493 21.9994 2.8363 22 3.85978V7.97378C21.9003 7.96746 21.8004 7.9642 21.7006 7.964C21.1619 7.96115 20.6297 8.08069 20.144 8.31359C19.6583 8.54649 19.2318 8.88666 18.8968 9.30844C18.3199 10.0247 17.9703 10.9914 17.8848 12.078C17.8669 12.2947 17.8599 12.5115 17.864 12.7282C17.9214 15.1898 19.2512 17.1576 21.6138 17.1576C21.7458 17.1576 21.8745 17.1514 22 17.1392V18.1414C21.999 19.1647 21.592 20.1458 20.8683 20.8692C20.1447 21.5927 19.1635 21.9994 18.1402 22H3.85978C2.8363 21.9994 1.85493 21.5925 1.13122 20.8688C0.407509 20.1451 0.000647566 19.1637 0 18.1402V3.85978C0.000647566 2.8363 0.407509 1.85493 1.13122 1.13122C1.85493 0.407509 2.8363 0.000647566 3.85978 0ZM22 15.1409V11.8091H19.9797C19.8892 13.4176 20.7692 14.7791 22 15.1409ZM22 11.3434V8.52256C21.898 8.49482 21.7928 8.48045 21.6871 8.47978C20.691 8.50056 20.0982 9.69222 20.0249 11.3434H22ZM17.963 5.25556L17.9813 5.25189V5.11744H14.4369L11.1491 12.8492L7.85889 5.11744H4.04067V5.25189L4.05778 5.25556C4.70433 5.40222 5.03189 5.61978 5.03189 6.40444V15.5956C5.03189 16.3802 4.70189 16.5978 4.05656 16.7444L4.03944 16.7469V16.8813H6.63056V16.7469L6.61222 16.7444C5.96567 16.5978 5.63689 16.3802 5.63689 15.5956V6.93733L9.86333 16.8826H10.1029L14.4528 6.65989V15.8217C14.3966 16.4426 14.0714 16.6344 13.486 16.7664L13.4689 16.7701V16.9033H17.9813V16.7689L17.963 16.7664C17.3763 16.6344 17.0439 16.4426 16.9889 15.8217L16.9852 6.40444H16.9889C16.9889 5.61978 17.3164 5.40222 17.963 5.25556Z" fill="#B5B5B5"/>
</svg>
