<svg width="16" height="20" viewBox="0 0 16 20" fill="none" xmlns="http://www.w3.org/2000/svg">
<path fill-rule="evenodd" clip-rule="evenodd" d="M10 0.25C10 0.183696 9.97366 0.120107 9.92678 0.0732234C9.87989 0.0263393 9.8163 0 9.75 0H2.75C2.02065 0 1.32118 0.289731 0.805456 0.805456C0.289731 1.32118 0 2.02065 0 2.75V16.75C0 17.4793 0.289731 18.1788 0.805456 18.6945C1.32118 19.2103 2.02065 19.5 2.75 19.5H12.75C13.4793 19.5 14.1788 19.2103 14.6945 18.6945C15.2103 18.1788 15.5 17.4793 15.5 16.75V6.897C15.5 6.8307 15.4737 6.76711 15.4268 6.72022C15.3799 6.67334 15.3163 6.647 15.25 6.647H10.75C10.5511 6.647 10.3603 6.56798 10.2197 6.42733C10.079 6.28668 10 6.09591 10 5.897V0.25ZM9.781 10.914C9.93642 10.7896 10.1349 10.7321 10.3327 10.754C10.5306 10.7759 10.7116 10.8756 10.836 11.031C10.9604 11.1864 11.0179 11.3849 10.996 11.5827C10.9741 11.7806 10.8744 11.9616 10.719 12.086L8.225 14.081C8.09144 14.19 7.9244 14.2497 7.752 14.25H7.744C7.57471 14.2487 7.41082 14.1902 7.279 14.084L4.782 12.086C4.62658 11.9617 4.52689 11.7808 4.50486 11.5831C4.48282 11.3853 4.54025 11.1869 4.6645 11.0315C4.78875 10.8761 4.96966 10.7764 5.16741 10.7544C5.36517 10.7323 5.56358 10.7897 5.719 10.914L7 11.94V8.5C7 8.40151 7.0194 8.30398 7.05709 8.21299C7.09478 8.12199 7.15003 8.03931 7.21967 7.96967C7.28931 7.90003 7.37199 7.84478 7.46299 7.80709C7.55398 7.7694 7.65151 7.75 7.75 7.75C7.84849 7.75 7.94602 7.7694 8.03701 7.80709C8.12801 7.84478 8.21069 7.90003 8.28033 7.96967C8.34997 8.03931 8.40522 8.12199 8.44291 8.21299C8.4806 8.30398 8.5 8.40151 8.5 8.5V11.94L9.781 10.914Z" fill="#B5B5B5"/>
<path d="M11.5 0.573999C11.5 0.389999 11.693 0.272999 11.836 0.387999C11.9573 0.485999 12.065 0.599999 12.159 0.729999L15.172 4.927C15.24 5.023 15.166 5.147 15.048 5.147H11.75C11.6837 5.147 11.6201 5.12066 11.5732 5.07378C11.5263 5.02689 11.5 4.9633 11.5 4.897V0.573999Z" fill="#B5B5B5"/>
</svg>
