<svg width="11" height="19" viewBox="0 0 11 19" fill="none" xmlns="http://www.w3.org/2000/svg">
<rect y="1" width="1" height="1" fill="white"/>
<rect y="2" width="1" height="1" fill="white"/>
<rect y="4" width="1" height="1" fill="white"/>
<rect y="5" width="1" height="1" fill="white"/>
<rect y="7" width="1" height="1" fill="white"/>
<rect y="8" width="1" height="1" fill="white"/>
<rect y="10" width="1" height="1" fill="white"/>
<rect y="11" width="1" height="1" fill="white"/>
<rect y="13" width="1" height="1" fill="white"/>
<rect y="14" width="1" height="1" fill="white"/>
<rect y="16" width="1" height="1" fill="white"/>
<rect y="17" width="1" height="1" fill="white"/>
<rect x="2" width="1" height="1" fill="white"/>
<rect x="2" y="1" width="1" height="1" fill="white"/>
<rect x="2" y="3" width="1" height="1" fill="white"/>
<rect x="2" y="4" width="1" height="1" fill="white"/>
<rect x="2" y="6" width="1" height="1" fill="white"/>
<rect x="2" y="7" width="1" height="1" fill="white"/>
<rect x="2" y="9" width="1" height="1" fill="white"/>
<rect x="2" y="10" width="1" height="1" fill="white"/>
<rect x="2" y="12" width="1" height="1" fill="white"/>
<rect x="2" y="13" width="1" height="1" fill="white"/>
<rect x="2" y="15" width="1" height="1" fill="white"/>
<rect x="2" y="16" width="1" height="1" fill="white"/>
<rect x="2" y="18" width="1" height="1" fill="white"/>
<rect x="4" y="1" width="1" height="1" fill="white"/>
<rect x="4" y="2" width="1" height="1" fill="white"/>
<rect x="4" y="4" width="1" height="1" fill="white"/>
<rect x="4" y="5" width="1" height="1" fill="white"/>
<rect x="4" y="7" width="1" height="1" fill="white"/>
<rect x="4" y="8" width="1" height="1" fill="white"/>
<rect x="4" y="10" width="1" height="1" fill="white"/>
<rect x="4" y="11" width="1" height="1" fill="white"/>
<rect x="4" y="13" width="1" height="1" fill="white"/>
<rect x="4" y="14" width="1" height="1" fill="white"/>
<rect x="4" y="16" width="1" height="1" fill="white"/>
<rect x="4" y="17" width="1" height="1" fill="white"/>
<rect x="6" width="1" height="1" fill="white"/>
<rect x="6" y="1" width="1" height="1" fill="white"/>
<rect x="6" y="3" width="1" height="1" fill="white"/>
<rect x="6" y="4" width="1" height="1" fill="white"/>
<rect x="6" y="6" width="1" height="1" fill="white"/>
<rect x="6" y="7" width="1" height="1" fill="white"/>
<rect x="6" y="9" width="1" height="1" fill="white"/>
<rect x="6" y="10" width="1" height="1" fill="white"/>
<rect x="6" y="12" width="1" height="1" fill="white"/>
<rect x="6" y="13" width="1" height="1" fill="white"/>
<rect x="6" y="15" width="1" height="1" fill="white"/>
<rect x="6" y="16" width="1" height="1" fill="white"/>
<rect x="6" y="18" width="1" height="1" fill="white"/>
<rect x="8" y="1" width="1" height="1" fill="white"/>
<rect x="8" y="2" width="1" height="1" fill="white"/>
<rect x="8" y="4" width="1" height="1" fill="white"/>
<rect x="8" y="5" width="1" height="1" fill="white"/>
<rect x="8" y="7" width="1" height="1" fill="white"/>
<rect x="8" y="8" width="1" height="1" fill="white"/>
<rect x="8" y="10" width="1" height="1" fill="white"/>
<rect x="8" y="11" width="1" height="1" fill="white"/>
<rect x="8" y="13" width="1" height="1" fill="white"/>
<rect x="8" y="14" width="1" height="1" fill="white"/>
<rect x="8" y="16" width="1" height="1" fill="white"/>
<rect x="8" y="17" width="1" height="1" fill="white"/>
<rect x="10" width="1" height="1" fill="white"/>
<rect x="10" y="1" width="1" height="1" fill="white"/>
<rect x="10" y="3" width="1" height="1" fill="white"/>
<rect x="10" y="4" width="1" height="1" fill="white"/>
<rect x="10" y="6" width="1" height="1" fill="white"/>
<rect x="10" y="7" width="1" height="1" fill="white"/>
<rect x="10" y="9" width="1" height="1" fill="white"/>
<rect x="10" y="10" width="1" height="1" fill="white"/>
<rect x="10" y="12" width="1" height="1" fill="white"/>
<rect x="10" y="13" width="1" height="1" fill="white"/>
<rect x="10" y="15" width="1" height="1" fill="white"/>
<rect x="10" y="16" width="1" height="1" fill="white"/>
<rect x="10" y="18" width="1" height="1" fill="white"/>
</svg>
