<svg width="33" height="57" viewBox="0 0 33 57" fill="none" xmlns="http://www.w3.org/2000/svg">
<rect y="-0.000244141" width="3" height="3.00002" fill="white"/>
<rect x="11.9995" y="-0.000244141" width="3" height="3.00002" fill="white"/>
<rect x="24.0005" y="-0.000244141" width="3" height="3.00002" fill="white"/>
<rect x="6" y="5.99951" width="3" height="3.00002" fill="white"/>
<rect x="18" y="5.99951" width="3" height="3.00002" fill="white"/>
<rect x="30" y="5.99951" width="3" height="3.00002" fill="white"/>
<rect y="12" width="3" height="3.00002" fill="white"/>
<rect x="11.9995" y="12" width="3" height="3.00002" fill="white"/>
<rect x="24.0005" y="12" width="3" height="3.00002" fill="white"/>
<rect x="30" y="17.9998" width="3" height="3.00002" fill="white"/>
<rect x="6" y="17.9998" width="3" height="3.00002" fill="white"/>
<rect y="23.9995" width="3" height="3.00002" fill="white"/>
<rect x="11.9995" y="23.9995" width="3" height="3.00002" fill="white"/>
<rect x="18" y="17.9998" width="3" height="3.00002" fill="white"/>
<rect x="24.0005" y="23.9995" width="3" height="3.00002" fill="white"/>
<rect x="30" y="30" width="3" height="3.00002" fill="white"/>
<rect x="6" y="30" width="3" height="3.00002" fill="white"/>
<rect y="35.9998" width="3" height="3.00002" fill="white"/>
<rect x="11.9995" y="35.9998" width="3" height="3.00002" fill="white"/>
<rect x="18" y="30" width="3" height="3.00002" fill="white"/>
<rect x="24.0005" y="35.9998" width="3" height="3.00002" fill="white"/>
<rect x="30" y="42" width="3" height="3.00002" fill="white"/>
<rect x="18" y="42" width="3" height="3.00002" fill="white"/>
<rect x="6" y="42" width="3" height="3.00002" fill="white"/>
<rect y="48" width="3" height="3.00002" fill="white"/>
<rect x="11.9995" y="48" width="3" height="3.00002" fill="white"/>
<rect x="24.0005" y="48" width="3" height="3.00002" fill="white"/>
<rect x="18" y="53.9998" width="3" height="3.00002" fill="white"/>
<rect x="30" y="53.9998" width="3" height="3.00002" fill="white"/>
<rect x="6" y="53.9998" width="3" height="3.00002" fill="white"/>
</svg>
