<svg width="33" height="57" viewBox="0 0 33 57" fill="none" xmlns="http://www.w3.org/2000/svg">
<rect x="3" width="3" height="3" fill="white"/>
<rect x="6" width="3" height="3" fill="white"/>
<rect width="3" height="3" fill="white"/>
<rect x="3" y="9" width="3" height="3" fill="white"/>
<rect x="6" y="9" width="3" height="3" fill="white"/>
<rect y="9" width="3" height="3" fill="white"/>
<rect x="3" y="18" width="3" height="3" fill="white"/>
<rect x="6" y="18" width="3" height="3" fill="white"/>
<rect y="18" width="3" height="3" fill="white"/>
<rect x="3" y="27" width="3" height="3" fill="white"/>
<rect x="6" y="27" width="3" height="3" fill="white"/>
<rect y="27" width="3" height="3" fill="white"/>
<rect x="3" y="36" width="3" height="3" fill="white"/>
<rect x="6" y="36" width="3" height="3" fill="white"/>
<rect y="36" width="3" height="3" fill="white"/>
<rect x="3" y="45" width="3" height="3" fill="white"/>
<rect x="6" y="45" width="3" height="3" fill="white"/>
<rect y="45" width="3" height="3" fill="white"/>
<rect x="3" y="54" width="3" height="3" fill="white"/>
<rect x="6" y="54" width="3" height="3" fill="white"/>
<rect y="54" width="3" height="3" fill="white"/>
<rect x="15" y="54" width="3" height="3" fill="white"/>
<rect x="18" y="54" width="3" height="3" fill="white"/>
<rect x="12" y="54" width="3" height="3" fill="white"/>
<rect x="27" y="54" width="3" height="3" fill="white"/>
<rect x="30" y="54" width="3" height="3" fill="white"/>
<rect x="24" y="54" width="3" height="3" fill="white"/>
<rect x="15" y="36" width="3" height="3" fill="white"/>
<rect x="18" y="36" width="3" height="3" fill="white"/>
<rect x="12" y="36" width="3" height="3" fill="white"/>
<rect x="15" y="45" width="3" height="3" fill="white"/>
<rect x="18" y="45" width="3" height="3" fill="white"/>
<rect x="12" y="45" width="3" height="3" fill="white"/>
<rect x="15" y="18" width="3" height="3" fill="white"/>
<rect x="18" y="18" width="3" height="3" fill="white"/>
<rect x="12" y="18" width="3" height="3" fill="white"/>
<rect x="15" y="27" width="3" height="3" fill="white"/>
<rect x="18" y="27" width="3" height="3" fill="white"/>
<rect x="12" y="27" width="3" height="3" fill="white"/>
<rect x="15" width="3" height="3" fill="white"/>
<rect x="18" width="3" height="3" fill="white"/>
<rect x="12" width="3" height="3" fill="white"/>
<rect x="15" y="9" width="3" height="3" fill="white"/>
<rect x="18" y="9" width="3" height="3" fill="white"/>
<rect x="12" y="9" width="3" height="3" fill="white"/>
<rect x="27" width="3" height="3" fill="white"/>
<rect x="30" width="3" height="3" fill="white"/>
<rect x="24" width="3" height="3" fill="white"/>
<rect x="27" y="9" width="3" height="3" fill="white"/>
<rect x="30" y="9" width="3" height="3" fill="white"/>
<rect x="24" y="9" width="3" height="3" fill="white"/>
<rect x="27" y="18" width="3" height="3" fill="white"/>
<rect x="30" y="18" width="3" height="3" fill="white"/>
<rect x="24" y="18" width="3" height="3" fill="white"/>
<rect x="27" y="27" width="3" height="3" fill="white"/>
<rect x="30" y="27" width="3" height="3" fill="white"/>
<rect x="24" y="27" width="3" height="3" fill="white"/>
<rect x="27" y="36" width="3" height="3" fill="white"/>
<rect x="30" y="36" width="3" height="3" fill="white"/>
<rect x="24" y="36" width="3" height="3" fill="white"/>
<rect x="27" y="45" width="3" height="3" fill="white"/>
<rect x="30" y="45" width="3" height="3" fill="white"/>
<rect x="24" y="45" width="3" height="3" fill="white"/>
</svg>
