<svg width="33" height="57" viewBox="0 0 33 57" fill="none" xmlns="http://www.w3.org/2000/svg">
<rect width="3" height="3" fill="white"/>
<rect x="6" width="3" height="3" fill="white"/>
<rect x="12" width="3" height="3" fill="white"/>
<rect x="18" width="3" height="3" fill="white"/>
<rect x="24" width="3" height="3" fill="white"/>
<rect x="30" width="3" height="3" fill="white"/>
<rect x="30" y="6" width="3" height="3" fill="white"/>
<rect x="30" y="12" width="3" height="3" fill="white"/>
<rect x="30" y="18" width="3" height="3" fill="white"/>
<rect x="30" y="24" width="3" height="3" fill="white"/>
<rect x="30" y="30" width="3" height="3" fill="white"/>
<rect x="30" y="36" width="3" height="3" fill="white"/>
<rect x="30" y="42" width="3" height="3" fill="white"/>
<rect x="30" y="48" width="3" height="3" fill="white"/>
<rect x="30" y="54" width="3" height="3" fill="white"/>
<rect x="24" y="6" width="3" height="3" fill="white"/>
<rect x="24" y="12" width="3" height="3" fill="white"/>
<rect x="18" y="12" width="3" height="3" fill="white"/>
<rect x="12" y="12" width="3" height="3" fill="white"/>
<rect x="6" y="12" width="3" height="3" fill="white"/>
<rect y="12" width="3" height="3" fill="white"/>
<rect y="18" width="3" height="3" fill="white"/>
<rect x="6" y="18" width="3" height="3" fill="white"/>
<rect x="12" y="18" width="3" height="3" fill="white"/>
<rect x="18" y="18" width="3" height="3" fill="white"/>
<rect x="24" y="18" width="3" height="3" fill="white"/>
<rect x="24" y="24" width="3" height="3" fill="white"/>
<rect x="18" y="24" width="3" height="3" fill="white"/>
<rect x="12" y="24" width="3" height="3" fill="white"/>
<rect x="6" y="24" width="3" height="3" fill="white"/>
<rect y="24" width="3" height="3" fill="white"/>
<rect y="30" width="3" height="3" fill="white"/>
<rect x="6" y="30" width="3" height="3" fill="white"/>
<rect x="12" y="30" width="3" height="3" fill="white"/>
<rect x="18" y="30" width="3" height="3" fill="white"/>
<rect x="24" y="30" width="3" height="3" fill="white"/>
<rect x="24" y="36" width="3" height="3" fill="white"/>
<rect x="18" y="36" width="3" height="3" fill="white"/>
<rect x="12" y="36" width="3" height="3" fill="white"/>
<rect x="6" y="36" width="3" height="3" fill="white"/>
<rect y="36" width="3" height="3" fill="white"/>
<rect y="42" width="3" height="3" fill="white"/>
<rect x="6" y="42" width="3" height="3" fill="white"/>
<rect x="12" y="42" width="3" height="3" fill="white"/>
<rect x="18" y="42" width="3" height="3" fill="white"/>
<rect x="24" y="42" width="3" height="3" fill="white"/>
<rect x="24" y="48" width="3" height="3" fill="white"/>
<rect x="18" y="48" width="3" height="3" fill="white"/>
<rect x="12" y="48" width="3" height="3" fill="white"/>
<rect x="6" y="48" width="3" height="3" fill="white"/>
<rect y="48" width="3" height="3" fill="white"/>
<rect y="54" width="3" height="3" fill="white"/>
<rect x="6" y="54" width="3" height="3" fill="white"/>
<rect x="12" y="54" width="3" height="3" fill="white"/>
<rect x="18" y="54" width="3" height="3" fill="white"/>
<rect x="24" y="54" width="3" height="3" fill="white"/>
<rect x="18" y="6" width="3" height="3" fill="white"/>
<rect x="12" y="6" width="3" height="3" fill="white"/>
<rect x="6" y="6" width="3" height="3" fill="white"/>
<rect y="6" width="3" height="3" fill="white"/>
<rect x="3" y="3" width="3" height="3" fill="white"/>
<rect x="15" y="3" width="3" height="3" fill="white"/>
<rect x="27" y="3" width="3" height="3" fill="white"/>
<rect x="30" y="9" width="3" height="3" fill="white"/>
<rect x="21" y="9" width="3" height="3" fill="white"/>
<rect x="9" y="9" width="3" height="3" fill="white"/>
<rect y="9" width="3" height="3" fill="white"/>
<rect x="3" y="15" width="3" height="3" fill="white"/>
<rect x="3" y="15" width="3" height="3" fill="white"/>
<rect x="3" y="15" width="3" height="3" fill="white"/>
<rect x="3" y="15" width="3" height="3" fill="white"/>
<rect x="3" y="15" width="3" height="3" fill="white"/>
<rect x="3" y="15" width="3" height="3" fill="white"/>
<rect x="15" y="15" width="3" height="3" fill="white"/>
<rect x="27" y="15" width="3" height="3" fill="white"/>
<rect x="30" y="21" width="3" height="3" fill="white"/>
<rect x="21" y="21" width="3" height="3" fill="white"/>
<rect x="9" y="21" width="3" height="3" fill="white"/>
<rect y="21" width="3" height="3" fill="white"/>
<rect x="3" y="27" width="3" height="3" fill="white"/>
<rect x="3" y="27" width="3" height="3" fill="white"/>
<rect x="15" y="27" width="3" height="3" fill="white"/>
<rect x="15" y="27" width="3" height="3" fill="white"/>
<rect x="27" y="27" width="3" height="3" fill="white"/>
<rect x="27" y="27" width="3" height="3" fill="white"/>
<rect x="30" y="33" width="3" height="3" fill="white"/>
<rect x="30" y="33" width="3" height="3" fill="white"/>
<rect x="21" y="33" width="3" height="3" fill="white"/>
<rect x="21" y="33" width="3" height="3" fill="white"/>
<rect x="9" y="33" width="3" height="3" fill="white"/>
<rect x="9" y="33" width="3" height="3" fill="white"/>
<rect x="9" y="33" width="3" height="3" fill="white"/>
<rect x="9" y="33" width="3" height="3" fill="white"/>
<rect y="33" width="3" height="3" fill="white"/>
<rect x="3" y="39" width="3" height="3" fill="white"/>
<rect x="15" y="39" width="3" height="3" fill="white"/>
<rect x="27" y="39" width="3" height="3" fill="white"/>
<rect x="30" y="45" width="3" height="3" fill="white"/>
<rect x="21" y="45" width="3" height="3" fill="white"/>
<rect x="9" y="45" width="3" height="3" fill="white"/>
<rect y="45" width="3" height="3" fill="white"/>
<rect x="3" y="51" width="3" height="3" fill="white"/>
<rect x="15" y="51" width="3" height="3" fill="white"/>
<rect x="27" y="51" width="3" height="3" fill="white"/>
</svg>
