<svg width="11" height="19" viewBox="0 0 11 19" fill="none" xmlns="http://www.w3.org/2000/svg">
<rect width="1" height="1" fill="white"/>
<rect x="2" width="1" height="1" fill="white"/>
<rect x="4" width="1" height="1" fill="white"/>
<rect x="6" width="1" height="1" fill="white"/>
<rect x="8" width="1" height="1" fill="white"/>
<rect x="10" width="1" height="1" fill="white"/>
<rect x="10" y="2" width="1" height="1" fill="white"/>
<rect x="10" y="4" width="1" height="1" fill="white"/>
<rect x="10" y="6" width="1" height="1" fill="white"/>
<rect x="10" y="8" width="1" height="1" fill="white"/>
<rect x="10" y="10" width="1" height="1" fill="white"/>
<rect x="10" y="12" width="1" height="1" fill="white"/>
<rect x="10" y="14" width="1" height="1" fill="white"/>
<rect x="10" y="16" width="1" height="1" fill="white"/>
<rect x="10" y="18" width="1" height="1" fill="white"/>
<rect x="8" y="2" width="1" height="1" fill="white"/>
<rect x="8" y="4" width="1" height="1" fill="white"/>
<rect x="6" y="4" width="1" height="1" fill="white"/>
<rect x="4" y="4" width="1" height="1" fill="white"/>
<rect x="2" y="4" width="1" height="1" fill="white"/>
<rect y="4" width="1" height="1" fill="white"/>
<rect y="6" width="1" height="1" fill="white"/>
<rect x="2" y="6" width="1" height="1" fill="white"/>
<rect x="4" y="6" width="1" height="1" fill="white"/>
<rect x="6" y="6" width="1" height="1" fill="white"/>
<rect x="8" y="6" width="1" height="1" fill="white"/>
<rect x="8" y="8" width="1" height="1" fill="white"/>
<rect x="6" y="8" width="1" height="1" fill="white"/>
<rect x="4" y="8" width="1" height="1" fill="white"/>
<rect x="2" y="8" width="1" height="1" fill="white"/>
<rect y="8" width="1" height="1" fill="white"/>
<rect y="10" width="1" height="1" fill="white"/>
<rect x="2" y="10" width="1" height="1" fill="white"/>
<rect x="4" y="10" width="1" height="1" fill="white"/>
<rect x="6" y="10" width="1" height="1" fill="white"/>
<rect x="8" y="10" width="1" height="1" fill="white"/>
<rect x="8" y="12" width="1" height="1" fill="white"/>
<rect x="6" y="12" width="1" height="1" fill="white"/>
<rect x="4" y="12" width="1" height="1" fill="white"/>
<rect x="2" y="12" width="1" height="1" fill="white"/>
<rect y="12" width="1" height="1" fill="white"/>
<rect y="14" width="1" height="1" fill="white"/>
<rect x="2" y="14" width="1" height="1" fill="white"/>
<rect x="4" y="14" width="1" height="1" fill="white"/>
<rect x="6" y="14" width="1" height="1" fill="white"/>
<rect x="8" y="14" width="1" height="1" fill="white"/>
<rect x="8" y="16" width="1" height="1" fill="white"/>
<rect x="6" y="16" width="1" height="1" fill="white"/>
<rect x="4" y="16" width="1" height="1" fill="white"/>
<rect x="2" y="16" width="1" height="1" fill="white"/>
<rect y="16" width="1" height="1" fill="white"/>
<rect y="18" width="1" height="1" fill="white"/>
<rect x="2" y="18" width="1" height="1" fill="white"/>
<rect x="4" y="18" width="1" height="1" fill="white"/>
<rect x="6" y="18" width="1" height="1" fill="white"/>
<rect x="8" y="18" width="1" height="1" fill="white"/>
<rect x="6" y="2" width="1" height="1" fill="white"/>
<rect x="4" y="2" width="1" height="1" fill="white"/>
<rect x="2" y="2" width="1" height="1" fill="white"/>
<rect y="2" width="1" height="1" fill="white"/>
</svg>
