<svg width="12" height="19" viewBox="0 0 12 19" fill="none" xmlns="http://www.w3.org/2000/svg">
<rect width="1" height="1" fill="white"/>
<rect x="4" width="1" height="1" fill="white"/>
<rect x="8" width="1" height="1" fill="white"/>
<rect x="2" y="2" width="1" height="1" fill="white"/>
<rect x="6" y="2" width="1" height="1" fill="white"/>
<rect x="10" y="2" width="1" height="1" fill="white"/>
<rect y="4" width="1" height="1" fill="white"/>
<rect x="4" y="4" width="1" height="1" fill="white"/>
<rect x="8" y="4" width="1" height="1" fill="white"/>
<rect x="10" y="6" width="1" height="1" fill="white"/>
<rect x="2" y="6" width="1" height="1" fill="white"/>
<rect y="8" width="1" height="1" fill="white"/>
<rect x="4" y="8" width="1" height="1" fill="white"/>
<rect x="6" y="6" width="1" height="1" fill="white"/>
<rect x="8" y="8" width="1" height="1" fill="white"/>
<rect x="10" y="10" width="1" height="1" fill="white"/>
<rect x="2" y="10" width="1" height="1" fill="white"/>
<rect y="12" width="1" height="1" fill="white"/>
<rect x="4" y="12" width="1" height="1" fill="white"/>
<rect x="6" y="10" width="1" height="1" fill="white"/>
<rect x="8" y="12" width="1" height="1" fill="white"/>
<rect x="10" y="14" width="1" height="1" fill="white"/>
<rect x="6" y="14" width="1" height="1" fill="white"/>
<rect x="2" y="14" width="1" height="1" fill="white"/>
<rect y="16" width="1" height="1" fill="white"/>
<rect x="4" y="16" width="1" height="1" fill="white"/>
<rect x="8" y="16" width="1" height="1" fill="white"/>
<rect x="6" y="18" width="1" height="1" fill="white"/>
<rect x="10" y="18" width="1" height="1" fill="white"/>
<rect x="2" y="18" width="1" height="1" fill="white"/>
<rect width="1" height="1" fill="white"/>
<rect x="4" width="1" height="1" fill="white"/>
<rect x="8" width="1" height="1" fill="white"/>
<rect x="2" y="2" width="1" height="1" fill="white"/>
<rect x="6" y="2" width="1" height="1" fill="white"/>
<rect x="10" y="2" width="1" height="1" fill="white"/>
<rect y="4" width="1" height="1" fill="white"/>
<rect x="4" y="4" width="1" height="1" fill="white"/>
<rect x="8" y="4" width="1" height="1" fill="white"/>
<rect x="10" y="6" width="1" height="1" fill="white"/>
<rect x="2" y="6" width="1" height="1" fill="white"/>
<rect y="8" width="1" height="1" fill="white"/>
<rect x="4" y="8" width="1" height="1" fill="white"/>
<rect x="6" y="6" width="1" height="1" fill="white"/>
<rect x="8" y="8" width="1" height="1" fill="white"/>
<rect x="10" y="10" width="1" height="1" fill="white"/>
<rect x="2" y="10" width="1" height="1" fill="white"/>
<rect y="12" width="1" height="1" fill="white"/>
<rect x="4" y="12" width="1" height="1" fill="white"/>
<rect x="6" y="10" width="1" height="1" fill="white"/>
<rect x="8" y="12" width="1" height="1" fill="white"/>
<rect x="10" y="14" width="1" height="1" fill="white"/>
<rect x="6" y="14" width="1" height="1" fill="white"/>
<rect x="2" y="14" width="1" height="1" fill="white"/>
<rect y="16" width="1" height="1" fill="white"/>
<rect x="4" y="16" width="1" height="1" fill="white"/>
<rect x="8" y="16" width="1" height="1" fill="white"/>
<rect x="6" y="18" width="1" height="1" fill="white"/>
<rect x="10" y="18" width="1" height="1" fill="white"/>
<rect x="2" y="18" width="1" height="1" fill="white"/>
<rect x="1" width="1" height="1" fill="white"/>
<rect x="3" width="1" height="1" fill="white"/>
<rect x="5" width="1" height="1" fill="white"/>
<rect x="7" width="1" height="1" fill="white"/>
<rect x="9" width="1" height="1" fill="white"/>
<rect x="11" width="1" height="1" fill="white"/>
<rect x="11" y="2" width="1" height="1" fill="white"/>
<rect x="11" y="4" width="1" height="1" fill="white"/>
<rect x="11" y="6" width="1" height="1" fill="white"/>
<rect x="11" y="8" width="1" height="1" fill="white"/>
<rect x="11" y="10" width="1" height="1" fill="white"/>
<rect x="11" y="12" width="1" height="1" fill="white"/>
<rect x="11" y="14" width="1" height="1" fill="white"/>
<rect x="11" y="16" width="1" height="1" fill="white"/>
<rect x="11" y="18" width="1" height="1" fill="white"/>
<rect x="9" y="2" width="1" height="1" fill="white"/>
<rect x="9" y="4" width="1" height="1" fill="white"/>
<rect x="7" y="4" width="1" height="1" fill="white"/>
<rect x="5" y="4" width="1" height="1" fill="white"/>
<rect x="3" y="4" width="1" height="1" fill="white"/>
<rect x="1" y="4" width="1" height="1" fill="white"/>
<rect x="1" y="6" width="1" height="1" fill="white"/>
<rect x="3" y="6" width="1" height="1" fill="white"/>
<rect x="5" y="6" width="1" height="1" fill="white"/>
<rect x="7" y="6" width="1" height="1" fill="white"/>
<rect x="9" y="6" width="1" height="1" fill="white"/>
<rect x="9" y="8" width="1" height="1" fill="white"/>
<rect x="7" y="8" width="1" height="1" fill="white"/>
<rect x="5" y="8" width="1" height="1" fill="white"/>
<rect x="3" y="8" width="1" height="1" fill="white"/>
<rect x="1" y="8" width="1" height="1" fill="white"/>
<rect x="1" y="10" width="1" height="1" fill="white"/>
<rect x="3" y="10" width="1" height="1" fill="white"/>
<rect x="5" y="10" width="1" height="1" fill="white"/>
<rect x="7" y="10" width="1" height="1" fill="white"/>
<rect x="9" y="10" width="1" height="1" fill="white"/>
<rect x="9" y="12" width="1" height="1" fill="white"/>
<rect x="7" y="12" width="1" height="1" fill="white"/>
<rect x="5" y="12" width="1" height="1" fill="white"/>
<rect x="3" y="12" width="1" height="1" fill="white"/>
<rect x="1" y="12" width="1" height="1" fill="white"/>
<rect x="1" y="14" width="1" height="1" fill="white"/>
<rect x="3" y="14" width="1" height="1" fill="white"/>
<rect x="5" y="14" width="1" height="1" fill="white"/>
<rect x="7" y="14" width="1" height="1" fill="white"/>
<rect x="9" y="14" width="1" height="1" fill="white"/>
<rect x="9" y="16" width="1" height="1" fill="white"/>
<rect x="7" y="16" width="1" height="1" fill="white"/>
<rect x="5" y="16" width="1" height="1" fill="white"/>
<rect x="3" y="16" width="1" height="1" fill="white"/>
<rect x="1" y="16" width="1" height="1" fill="white"/>
<rect x="1" y="18" width="1" height="1" fill="white"/>
<rect x="3" y="18" width="1" height="1" fill="white"/>
<rect x="5" y="18" width="1" height="1" fill="white"/>
<rect x="7" y="18" width="1" height="1" fill="white"/>
<rect x="9" y="18" width="1" height="1" fill="white"/>
<rect x="7" y="2" width="1" height="1" fill="white"/>
<rect x="5" y="2" width="1" height="1" fill="white"/>
<rect x="3" y="2" width="1" height="1" fill="white"/>
<rect x="1" y="2" width="1" height="1" fill="white"/>
</svg>
