<svg width="195" height="115" viewBox="0 0 195 115" fill="#C3C3C3" xmlns="http://www.w3.org/2000/svg">
  <path d="M137.098 13.0989L145.724 6.21224L151.552 17.0675L149.687 34.4591L158.313 42.2795L169.853 53.9518L175.682 59.7879L170.786 62.5892H160.178L169.853 68.4254L181.51 71.3434L189.32 74.2615L194.1 81.9652L184.424 83.4826L150.503 91.1863L108.889 100.874L72.0531 102.859L42.0952 107.761L1.41309 113.597L3.39472 109.745L11.0882 102.859L19.7142 100.057L20.7633 93.1706L31.371 83.4826L35.2177 84.4164L48.7396 87.3345L59.4638 83.4826L70.0715 75.6622L76.9489 67.0247L80.7957 52.3177L85.575 43.6802L91.4034 36.7936L99.0968 37.8441L101.078 30.9574L104.925 22.32L113.784 9.59719L119.496 0.959717L134.067 11.5815L138.963 12.632L137.098 13.0989" stroke="black" stroke-width="1.599987" stroke-miterlimit="10"/>
</svg>
