<svg width="51" height="51" viewBox="0 0 51 51" fill="none"
  xmlns="http://www.w3.org/2000/svg">
  <path d="M25.5 49.875C38.9619 49.875 49.875 38.9619 49.875 25.5C49.875 12.0381 38.9619 1.125 25.5 1.125C12.0381 1.125 1.125 12.0381 1.125 25.5C1.125 38.9619 12.0381 49.875 25.5 49.875Z" stroke="#333333" stroke-width="2" stroke-linecap="round" stroke-linejoin="round"/>
  <path d="M47.378 36.2587L33.5943 27.7812C33.3527 27.6326 33.0827 27.5362 32.8015 27.4983L27.0077 26.7173C26.5727 26.6587 26.1303 26.7426 25.7469 26.9564C25.3635 27.1703 25.0597 27.5026 24.881 27.9035L21.4028 35.7082C21.2411 36.0711 21.1893 36.4736 21.254 36.8656C21.3187 37.2577 21.4969 37.6222 21.7667 37.914L26.5401 43.077C26.7565 43.3111 26.9148 43.5928 27.0021 43.8994C27.0895 44.206 27.1034 44.5288 27.0429 44.8417L26.0706 49.8682" stroke="#333333" stroke-width="2" stroke-linecap="round" stroke-linejoin="round"/>
  <path d="M9.49208 7.11835L7.22109 12.4884C7.01859 12.9672 7.0074 13.5054 7.1898 13.9923L10.1074 21.7791C10.2269 22.098 10.4246 22.3817 10.6824 22.6042C10.9402 22.8267 11.2498 22.9808 11.5827 23.0523L17.0239 24.2218C17.3258 24.2867 17.609 24.4196 17.8518 24.6103C18.0947 24.8011 18.2908 25.0447 18.4254 25.3227L19.3916 27.3189C19.5579 27.6624 19.8176 27.9521 20.141 28.1549C20.4644 28.3576 20.8383 28.4651 21.22 28.4651H24.6306" stroke="#333333" stroke-width="2" stroke-linecap="round" stroke-linejoin="round"/>
  <path d="M31.7102 1.92422L34.08 6.16913C34.3041 6.57042 34.3854 7.03582 34.3107 7.48931C34.236 7.94279 34.0098 8.35755 33.6689 8.66583L26.8361 14.8453C26.7201 14.9502 26.5924 15.0413 26.4556 15.1169L23.3473 16.8334C23.0466 16.9994 22.7088 17.0865 22.3654 17.0865H16.9456C16.546 17.0865 16.1552 17.2044 15.8222 17.4255C15.4892 17.6465 15.2288 17.9609 15.0737 18.3292L12.9594 23.3485" stroke="#333333" stroke-width="2" stroke-linecap="round" stroke-linejoin="round"/>
</svg>
