<svg width="17" height="18" viewBox="0 0 17 18" fill="none"
    xmlns="http://www.w3.org/2000/svg">
    <path d="M8.25186 2.08437e-07C6.4364 -0.000407744 4.67149 0.598028 3.23069 1.70256C1.78989 2.80709 0.753647 4.35602 0.282574 6.1093C-0.188499 7.86258 -0.0680953 9.72229 0.625122 11.4002C1.31834 13.0781 2.54566 14.4805 4.11686 15.39C4.80286 15.788 5.23186 16.398 5.25086 17.013C5.2561 17.1777 5.31546 17.3361 5.41975 17.4638C5.52405 17.5914 5.66747 17.6811 5.82786 17.719C6.17986 17.802 6.53786 17.867 6.90186 17.914C7.22486 17.955 7.50186 17.696 7.50186 17.37V12.709C7.18587 12.6743 6.87275 12.6171 6.56486 12.538C6.46945 12.5134 6.37982 12.4703 6.30107 12.4111C6.22233 12.3519 6.15601 12.2778 6.10592 12.193C6.05582 12.1082 6.02292 12.0143 6.0091 11.9168C5.99527 11.8192 6.0008 11.7199 6.02536 11.6245C6.04991 11.5291 6.09302 11.4395 6.15222 11.3607C6.21142 11.282 6.28555 11.2157 6.37037 11.1656C6.4552 11.1155 6.54906 11.0826 6.6466 11.0687C6.74414 11.0549 6.84345 11.0604 6.93886 11.085C7.80012 11.307 8.7036 11.307 9.56486 11.085C9.66122 11.0572 9.76218 11.0491 9.86175 11.061C9.96133 11.0729 10.0575 11.1047 10.1446 11.1545C10.2317 11.2042 10.3079 11.2709 10.3687 11.3507C10.4296 11.4304 10.4738 11.5215 10.4988 11.6186C10.5238 11.7157 10.5291 11.8169 10.5143 11.9161C10.4996 12.0153 10.4651 12.1105 10.4129 12.1961C10.3607 12.2817 10.2918 12.356 10.2104 12.4146C10.129 12.4731 10.0366 12.5148 9.93886 12.537C9.63099 12.6165 9.31787 12.6739 9.00186 12.709V17.369C9.00067 17.4457 9.01583 17.5217 9.04632 17.5921C9.07682 17.6624 9.12195 17.7255 9.17871 17.7771C9.23548 17.8286 9.30257 17.8675 9.37553 17.8911C9.44849 17.9147 9.52565 17.9225 9.60186 17.914C9.96297 17.8675 10.3215 17.8024 10.6759 17.719C10.8362 17.6811 10.9797 17.5914 11.084 17.4638C11.1883 17.3361 11.2476 17.1777 11.2529 17.013C11.2729 16.398 11.7009 15.788 12.3869 15.39C13.9581 14.4805 15.1854 13.0781 15.8786 11.4002C16.5718 9.72229 16.6922 7.86258 16.2211 6.1093C15.7501 4.35602 14.7138 2.80709 13.273 1.70256C11.8322 0.598028 10.0673 -0.000407744 8.25186 2.08437e-07Z" fill="#333333"/>
</svg>
