<svg width="25" height="42" viewBox="0 0 25 42" fill="none" xmlns="http://www.w3.org/2000/svg">
<path d="M3.05965 7.2285C3.49434 7.08157 4.45068 6.78772 4.79843 6.78772C5.23313 6.78772 6.10253 5.90616 6.53722 5.0246C6.97192 4.14304 7.40662 3.26148 9.5801 3.26148C11.7536 3.26148 13.4924 4.14304 14.3618 2.37991C15.2312 0.616791 16.1006 4.58382 16.97 5.46538C17.8393 6.34694 21.3169 8.55087 21.3169 12.9587C21.3169 17.3665 19.5781 20.4519 22.1863 19.5704C24.7945 18.6888 22.1863 26.1821 19.5781 26.1821C17.4916 26.1821 16.1006 27.6514 15.6659 28.386C14.9414 27.6514 13.2316 26.4466 12.1883 27.5044C10.8842 28.8268 9.5801 28.386 7.84131 30.1491C6.45028 31.5596 4.65354 32.5 3.92904 32.7938L2.19025 30.5899C2.76985 30.3866 4.01598 29.8376 4.36374 29.2676C4.79843 28.555 2.19025 26.6229 3.05965 24.8598C3.92904 23.0966 6.10253 22.2151 5.23313 20.0112C4.53762 18.248 4.36374 15.7503 4.36374 14.7218H1.75555C2.04535 13.8402 2.97271 12.0771 4.36374 12.0771C5.75477 12.0771 6.39232 12.9587 6.53722 13.3995L3.05965 7.2285ZM5.23313 37.6424C4.36374 37.4955 2.62495 37.5542 2.62495 38.9647C2.62495 40.7279 2.19025 39.8463 4.36374 39.8463C6.10253 39.8463 6.53722 38.9647 6.53722 38.524L5.23313 37.6424Z" stroke="#333333" stroke-width="2"/>
</svg>
