<svg width="60" height="60" viewBox="0 0 60 60" fill="none"
  xmlns="http://www.w3.org/2000/svg">
  <path d="M59.1019 11.52L48.3568 0.888C47.7787 0.315333 47.0086 0 46.1907 0H17.5096C15.8198 0 14.4453 1.36 14.4453 3.032V56.968C14.4453 58.64 15.8198 60 17.5096 60H56.9351C58.6248 60 60 58.64 60 56.968V13.664C60 12.854 59.6806 12.092 59.1019 11.52ZM48.0516 3.414L56.5483 11.822H48.912C48.4377 11.822 48.0523 11.44 48.0523 10.9707L48.0516 3.414ZM56.9351 58H17.5096C16.9342 58 16.4666 57.5373 16.4666 56.968V3.032C16.4666 2.46267 16.9342 2 17.5096 2H46.031V10.9707C46.031 12.5427 47.3233 13.822 48.912 13.822H57.9787V56.968C57.9787 57.5373 57.5105 58 56.9351 58Z" fill="#333333"/>
  <path d="M52.8487 22.2126H35.0717C34.5131 22.2126 34.061 21.7653 34.061 21.2126C34.061 20.66 34.5131 20.2126 35.0717 20.2126H52.8487C53.4066 20.2126 53.8594 20.66 53.8594 21.2126C53.8594 21.7653 53.4066 22.2126 52.8487 22.2126Z" fill="#333333"/>
  <path d="M30.1182 22.2126H21.5958C21.0373 22.2126 20.5852 21.7653 20.5852 21.2126C20.5852 20.66 21.0373 20.2126 21.5958 20.2126H30.1182C30.6767 20.2126 31.1288 20.66 31.1288 21.2126C31.1288 21.7653 30.6767 22.2126 30.1182 22.2126Z" fill="#333333"/>
  <path d="M35.4018 13.822H21.5958C21.0373 13.822 20.5852 13.3747 20.5852 12.822C20.5852 12.2694 21.0373 11.822 21.5958 11.822H35.4024C35.961 11.822 36.4131 12.2694 36.4131 12.822C36.4131 13.3747 35.9603 13.822 35.4018 13.822Z" fill="#333333"/>
  <path d="M52.8487 29.546H21.5958C21.0373 29.546 20.5852 29.0987 20.5852 28.546C20.5852 27.9934 21.0373 27.546 21.5958 27.546H52.8494C53.4072 27.546 53.86 27.9934 53.86 28.546C53.86 29.0987 53.4066 29.546 52.8487 29.546Z" fill="#333333"/>
  <path d="M39.3722 36.8793H21.5958C21.0373 36.8793 20.5852 36.4313 20.5852 35.8793C20.5852 35.3273 21.0373 34.8793 21.5958 34.8793H39.3729C39.9308 34.8793 40.3835 35.3273 40.3835 35.8793C40.3835 36.4313 39.9308 36.8793 39.3722 36.8793Z" fill="#333333"/>
  <path d="M52.8488 36.8793H44.3264C43.7686 36.8793 43.3158 36.4313 43.3158 35.8793C43.3158 35.3273 43.7686 34.8793 44.3264 34.8793H52.8488C53.4066 34.8793 53.8594 35.3273 53.8594 35.8793C53.8594 36.4313 53.4066 36.8793 52.8488 36.8793Z" fill="#333333"/>
  <path d="M52.8487 44.2126H21.5958C21.0373 44.2126 20.5852 43.7646 20.5852 43.2126C20.5852 42.6606 21.0373 42.2126 21.5958 42.2126H52.8494C53.4072 42.2126 53.86 42.6606 53.86 43.2126C53.86 43.7646 53.4066 44.2126 52.8487 44.2126Z" fill="#333333"/>
  <path d="M52.8488 51.546H44.3264C43.7686 51.546 43.3158 51.098 43.3158 50.546C43.3158 49.994 43.7686 49.546 44.3264 49.546H52.8488C53.4066 49.546 53.8594 49.994 53.8594 50.546C53.8594 51.098 53.4066 51.546 52.8488 51.546Z" fill="#333333"/>
</svg>
