<?xml version="1.0" encoding="UTF-8" standalone="no" ?>
<!DOCTYPE svg PUBLIC "-//W3C//DTD SVG 1.1//EN" "http://www.w3.org/Graphics/SVG/1.1/DTD/svg11.dtd">
<svg xmlns="http://www.w3.org/2000/svg" xmlns:xlink="http://www.w3.org/1999/xlink" version="1.1" width="1080" height="1080" viewBox="0 0 1080 1080" xml:space="preserve">
<desc>Created with Fabric.js 5.2.4</desc>
<defs>
</defs>
<g transform="matrix(1 0 0 1 540 540)" id="037342f2-34db-4cab-9d5f-0ed943609663"  >
<rect style="stroke: none; stroke-width: 1; stroke-dasharray: none; stroke-linecap: butt; stroke-dashoffset: 0; stroke-linejoin: miter; stroke-miterlimit: 4; fill: rgb(255,255,255); fill-rule: nonzero; opacity: 1; visibility: hidden;" vector-effect="non-scaling-stroke"  x="-540" y="-540" rx="0" ry="0" width="1080" height="1080" />
</g>
<g transform="matrix(1 0 0 1 540 540)" id="8375da1f-37c1-4160-beb1-ae320912873b"  >
</g>
<g transform="matrix(1 0 0 1 540 540)" id="b5dd55b9-39dd-4f76-b5e3-4c80c9b3ee34"  >
<path style="stroke: rgb(0,0,0); stroke-width: 0; stroke-dasharray: none; stroke-linecap: butt; stroke-dashoffset: 0; stroke-linejoin: miter; stroke-miterlimit: 4; fill: rgb(225,6,6); fill-rule: nonzero; opacity: 1;" vector-effect="non-scaling-stroke"  transform=" translate(-256, -248)" d="M 288 32 C 288 14.3 273.7 0 256 0 C 238.3 0 224 14.3 224 32 L 224 256 C 224 273.7 238.3 288 256 288 C 273.7 288 288 273.7 288 256 L 288 32 z M 143.5 120.6 C 157.1 109.3 158.9 89.1 147.6 75.5 C 136.29999999999998 61.900000000000006 116.1 60.1 102.5 71.4 C 49.7 115.4 16 181.8 16 256 C 16 388.5 123.5 496 256 496 C 388.5 496 496 388.5 496 256 C 496 181.8 462.2 115.4 409.4 71.4 C 395.79999999999995 60.10000000000001 375.59999999999997 62.00000000000001 364.29999999999995 75.5 C 352.99999999999994 89 354.9 109.3 368.4 120.6 C 407.29999999999995 152.89999999999998 431.9 201.6 431.9 256 C 431.9 353.2 353.09999999999997 432 255.89999999999998 432 C 158.7 432 79.89999999999998 353.2 79.89999999999998 256 C 79.89999999999998 201.6 104.59999999999998 152.9 143.39999999999998 120.6 z" stroke-linecap="round" />
</g>
</svg>