<svg width="18" height="22" viewBox="0 0 18 22" fill="none"
  xmlns="http://www.w3.org/2000/svg">
  <path fill-rule="evenodd" clip-rule="evenodd" d="M16.3824 1.19231H12.2059V8.11539H16.3824V1.19231ZM5.79412 1.28538H1.61765V10.6538H5.79412V1.28538ZM11.0882 1.28538H6.91177V10.6538H11.0882V1.28538ZM11.0277 11.3462H6.90838L6.97231 20.8077H11.0916L11.0277 11.3462ZM5.79412 11.6271H1.61765V20.8077H5.79412V11.6271ZM16.3824 20.8077V13.0385H12.2059V20.8077H16.3824ZM17.5 0.5V21.5H0.5V0.5H17.5ZM15.7293 9.28884C15.3335 8.97249 14.8162 8.80769 14.2941 8.80769C13.7721 8.80769 13.2548 8.97249 12.8589 9.28884C12.4602 9.60751 12.2059 10.0669 12.2059 10.5769C12.2059 11.087 12.4602 11.5463 12.8589 11.865C13.2548 12.1814 13.7721 12.3462 14.2941 12.3462C14.8162 12.3462 15.3335 12.1814 15.7293 11.865C16.1281 11.5463 16.3824 11.087 16.3824 10.5769C16.3824 10.0669 16.1281 9.60751 15.7293 9.28884ZM10.5311 11.8462L10.5882 20.3077H10.5881L10.5311 11.8462Z" fill="#000000"/>
</svg>
