<svg width="22" height="22" viewBox="0 0 22 22" fill="none"
  xmlns="http://www.w3.org/2000/svg">
  <path d="M10.8943 1.90988C10.9014 1.8875 10.9154 1.86796 10.9344 1.8541C10.9533 1.84024 10.9762 1.83276 10.9997 1.83276C11.0232 1.83276 11.046 1.84024 11.065 1.8541C11.0839 1.86796 11.098 1.8875 11.1051 1.90988L11.407 2.83876C11.4141 2.86107 11.4281 2.88055 11.447 2.89438C11.4659 2.90822 11.4887 2.91571 11.5121 2.91576H12.4893C12.5962 2.91576 12.6408 3.05326 12.554 3.11621L11.7639 3.69065C11.745 3.70435 11.7309 3.72366 11.7237 3.74583C11.7164 3.768 11.7164 3.79189 11.7235 3.8141L12.0254 4.74298C12.0331 4.7653 12.0333 4.78948 12.0263 4.81198C12.0192 4.83448 12.0051 4.85413 11.986 4.86805C11.967 4.88198 11.944 4.88945 11.9204 4.88938C11.8968 4.8893 11.8739 4.88169 11.8549 4.86765L11.0648 4.29321C11.0458 4.27944 11.0231 4.27203 10.9997 4.27203C10.9763 4.27203 10.9535 4.27944 10.9346 4.29321L10.1438 4.86765C10.1249 4.88157 10.102 4.88911 10.0785 4.88917C10.0551 4.88924 10.0322 4.88182 10.0132 4.868C9.99418 4.85418 9.98008 4.83468 9.97291 4.81231C9.96575 4.78994 9.96589 4.76588 9.97331 4.74359L10.2752 3.81471C10.2826 3.79249 10.2827 3.7685 10.2755 3.74621C10.2684 3.72392 10.2544 3.70447 10.2355 3.69065L9.4447 3.11621C9.42563 3.10251 9.41141 3.08309 9.40411 3.06077C9.3968 3.03846 9.39679 3.01439 9.40407 2.99207C9.41136 2.96974 9.42556 2.95031 9.44462 2.9366C9.46368 2.92288 9.48661 2.91558 9.51009 2.91576H10.4866C10.5349 2.91576 10.5771 2.88521 10.5924 2.83937L10.8943 1.91049V1.90988Z" fill="#000000"/>
  <path fill-rule="evenodd" clip-rule="evenodd" d="M6.12516 8.18643C5.78844 8.28849 5.44255 8.40032 5.08689 8.52254C4.95696 8.56701 4.81583 8.56642 4.68628 8.52086C4.55672 8.4753 4.44629 8.38744 4.37279 8.27143C4.29929 8.15542 4.267 8.01804 4.28114 7.88144C4.29528 7.74484 4.35502 7.61698 4.45072 7.51849L4.455 7.5136C4.49798 7.46839 4.53916 7.4215 4.57844 7.37304C4.66217 7.27221 4.774 7.1286 4.88522 6.95749C5.11989 6.59571 5.2965 6.19421 5.2965 5.84894C5.2965 2.63511 7.83383 0 11 0C14.1662 0 16.7035 2.63511 16.7035 5.84894C16.7035 6.19421 16.8807 6.59571 17.1148 6.95749C17.2362 7.14393 17.3716 7.32084 17.5199 7.48671L17.5242 7.49099C17.5334 7.50138 17.5401 7.50932 17.545 7.5136L17.5493 7.51849C17.645 7.61698 17.7047 7.74484 17.7188 7.88144C17.733 8.01804 17.7007 8.15542 17.6272 8.27143C17.5537 8.38744 17.4433 8.4753 17.3137 8.52086C17.1841 8.56642 17.043 8.56701 16.9131 8.52254C16.5574 8.40032 16.2115 8.28849 15.8748 8.18643C15.9252 8.85743 15.8366 9.53162 15.6145 10.1668C15.3923 10.8019 15.0415 11.3844 14.5838 11.8777C14.1262 12.371 13.5717 12.7646 12.955 13.0337C12.3382 13.3028 11.6726 13.4417 10.9997 13.4417C10.3268 13.4417 9.66115 13.3028 9.04442 13.0337C8.42768 12.7646 7.87315 12.371 7.41552 11.8777C6.95789 11.3844 6.60702 10.8019 6.38489 10.1668C6.16275 9.53162 6.07412 8.85743 6.12455 8.18643H6.12516ZM6.51872 5.84894C6.51872 3.27738 8.54149 1.22222 11 1.22222C13.4591 1.22222 15.4813 3.27738 15.4813 5.84894C15.4813 6.20766 15.568 6.55171 15.689 6.8591C14.2364 6.45149 12.8993 6.21743 11.5702 6.1661C11.1252 6.14848 10.6796 6.15133 10.2349 6.17466C8.96988 6.24127 7.69266 6.47166 6.31033 6.8591C6.44239 6.53841 6.51349 6.19571 6.51872 5.84894ZM7.40361 7.83627C7.29798 8.36797 7.31156 8.91647 7.44338 9.44229C7.57519 9.96811 7.82196 10.4582 8.16591 10.8772C8.50986 11.2962 8.94244 11.6337 9.43249 11.8654C9.92255 12.0972 10.4579 12.2174 11 12.2174C11.5421 12.2174 12.0774 12.0972 12.5675 11.8654C13.0575 11.6337 13.4901 11.2962 13.8341 10.8772C14.178 10.4582 14.4248 9.96811 14.5566 9.44229C14.6884 8.91647 14.702 8.36797 14.5964 7.83627C13.6125 7.59793 12.6934 7.45371 11.7926 7.40054C11.3007 7.37136 10.8076 7.36932 10.3155 7.39443C9.38055 7.4421 8.42722 7.58815 7.40361 7.83627ZM17.7222 11L20.7778 9.25404V1.83333H22V15.8889L17.7222 14.0555V11ZM20.7778 10.6614L18.9444 11.7095V13.2495L20.7778 14.0354V10.662V10.6614Z" fill="#000000"/>
  <path d="M3.75345 14.2621C3.82706 14.2273 3.89296 14.1782 3.94731 14.1176C4.00166 14.0569 4.04334 13.9861 4.06992 13.9091C4.0965 13.8322 4.10743 13.7507 4.10208 13.6695C4.09673 13.5882 4.07521 13.5089 4.03877 13.4361C4.00233 13.3633 3.95171 13.2985 3.88988 13.2455C3.82806 13.1926 3.75627 13.1525 3.67874 13.1276C3.60121 13.1028 3.5195 13.0937 3.43841 13.1009C3.35731 13.1081 3.27847 13.1314 3.20651 13.1695L0.948458 14.3C0.804854 14.3734 0.696066 14.5005 0.645802 14.6537C0.595539 14.807 0.607873 14.9738 0.680118 15.118C0.752363 15.2622 0.878662 15.3719 1.03149 15.4234C1.18432 15.4748 1.35129 15.4638 1.49601 15.3927L3.75345 14.2621ZM3.73145 18.0602C3.80396 17.9153 3.931 17.8052 4.08467 17.754C4.23833 17.7028 4.40604 17.7146 4.55095 17.787L5.50001 18.2612L6.44906 17.787C6.52109 17.7482 6.6002 17.7242 6.68168 17.7165C6.76316 17.7088 6.84535 17.7175 6.92338 17.7422C7.00142 17.7669 7.0737 17.807 7.13594 17.8601C7.19818 17.9133 7.24911 17.9784 7.28571 18.0516C7.32231 18.1248 7.34384 18.2046 7.34901 18.2863C7.35418 18.368 7.34289 18.4498 7.31581 18.5271C7.28873 18.6043 7.24642 18.6753 7.19138 18.7359C7.13634 18.7964 7.06969 18.8453 6.99539 18.8797L5.77317 19.4908C5.68835 19.5332 5.59483 19.5552 5.50001 19.5552C5.40518 19.5552 5.31166 19.5332 5.22684 19.4908L4.00462 18.8797C3.85978 18.8072 3.74965 18.6801 3.69843 18.5265C3.64721 18.3728 3.65908 18.2051 3.73145 18.0602Z" fill="#000000"/>
  <path fill-rule="evenodd" clip-rule="evenodd" d="M22 18.6387C22 16.1576 15.3242 14.595 10.6761 14.6707C6.26938 14.7422 0 16.1576 0 18.6387V21.9998H22V18.6387ZM10.6963 15.8923C12.5388 15.8624 14.7296 16.1062 16.6362 16.5676L15.3731 20.7776H1.22222V18.6387C1.22222 18.5849 1.25155 18.3496 1.77222 17.9664C2.27638 17.5961 3.05555 17.2331 4.05533 16.9159C6.04143 16.2853 8.58976 15.9272 10.6963 15.8923ZM17.8145 16.8927L16.6491 20.7776H20.7777V18.6387C20.7777 18.613 20.7582 18.3698 20.1789 17.9591C19.6454 17.5821 18.8362 17.2136 17.8145 16.8927Z" fill="#000000"/>
</svg>
