<svg width="64" height="37" viewBox="0 0 64 37" fill="none"
  xmlns="http://www.w3.org/2000/svg">
  <path d="M2.132 34.4213C3.18969 33.5644 4.11964 32.8608 4.77202 31.7166C5.05214 31.2253 5.67038 30.7356 6.09936 30.3863C7.02198 29.635 7.65865 28.2554 8.67338 27.6743C9.10897 27.4248 9.42595 26.7585 9.85406 26.4248C10.2531 26.1138 10.6692 26.0867 11.1741 26.0867C12.0594 26.0867 12.7972 27.4587 13.6968 27.7331C15.3052 28.2237 16.5417 27.2774 18.1188 27.2774C19.4396 27.2774 20.715 26.8251 21.4041 25.6163C21.5486 25.363 22.2403 25.1214 22.5261 24.9622C23.0392 24.6766 23.6496 24.2893 24.0955 23.9112C24.4354 23.623 24.3819 22.9848 24.6382 22.7793C24.8621 22.5998 25.0536 21.8499 25.1808 21.5666C25.6648 20.4888 25.6688 19.2135 26.2222 18.2152C26.5059 17.7033 26.6973 17.1309 27.0215 16.6203C27.466 15.9203 28.0236 15.19 28.2682 14.3933C28.4016 13.9586 28.5322 13.5113 28.5322 13.0557C28.5322 12.364 29.1517 12.4603 29.6469 12.4603C30.1162 12.4603 30.691 12.1647 31.0989 11.9311C31.4032 11.7568 31.3042 12.4081 31.3042 11.6004C31.3042 10.4004 32.6579 9.15987 33.4969 8.41798C34.519 7.51409 35.6181 6.79615 35.9316 5.38254C36.03 4.9388 36.1882 4.3837 36.1882 3.9273C36.1882 3.21265 36.239 2.93508 37.0462 2.93508C37.8874 2.93508 38.5893 3.14504 39.4149 3.19232C39.8383 3.21657 40.8489 3.57874 41.2043 3.13353C41.391 2.89959 41.6423 2.1291 41.8936 2.03842C42.5059 1.81749 43.0283 2.60859 43.4483 2.90568C44.3811 3.56558 46.275 3.71132 46.3523 5.1841C46.4176 6.42654 45.487 8.49475 46.4843 9.54984C47.7637 10.9033 49.2503 11.7844 51.0457 12.1957C52.3803 12.5015 54.174 12.3604 54.5657 13.9744C54.8378 15.0955 55.6788 17.2258 55.0937 18.2813C54.3837 19.5622 56.3254 20.2731 56.3844 21.4564C56.4175 22.1201 56.0425 22.5148 56.7511 22.5148C57.1249 22.5148 58.222 22.5043 58.4964 22.7793C59.1437 23.4281 59.5079 24.4312 60.1098 25.1607C60.2529 25.3342 60.8325 25.8651 60.4178 25.9838C59.7022 26.1887 59.0115 26.3285 58.2617 26.3513C55.2424 26.443 52.4753 27.2158 49.6817 28.3357C48.9953 28.6109 48.2731 28.6708 47.5697 28.8943C46.6703 29.1801 45.674 29.643 44.739 29.7616C42.8738 29.9982 40.9432 30.0314 39.0629 30.0556C37.4549 30.0762 35.7707 30.4932 34.1789 30.7464C32.7804 30.9689 31.4842 31.656 30.0869 31.8783C28.6112 32.1131 27.0419 32.0364 25.5988 32.4369C23.9163 32.9039 22.2505 33.4582 20.5095 33.6569C18.9141 33.8391 17.4574 33.8361 15.8601 33.7598C15.0206 33.7198 14.2895 33.7012 13.4547 34.0244C12.5545 34.373 11.8266 34.4213 10.8734 34.4213C9.33282 34.4213 7.84789 34.6739 6.3267 34.8476C5.36557 34.9573 4.41791 34.9505 3.45201 34.9505C3.12791 34.9505 2.48914 35.0795 2.19067 34.9211C2.15617 34.9028 2 34.4812 2 34.6859" stroke="#333333" stroke-width="2.5" stroke-linecap="round"/>
  <path d="M61.9999 10.8436C61.5102 11.1921 61.0732 11.5428 60.5358 11.7661C60.3827 11.8298 60.1935 11.9595 60.0729 12.0683C59.9164 12.2094 59.7683 12.3831 59.5777 12.4837C59.3483 12.6046 59.252 12.8881 59.0932 13.0771C58.9074 13.2982 58.8506 13.6465 58.7056 13.8917C58.5894 14.0883 58.6826 14.343 58.598 14.5337C58.423 14.9283 58.4634 15.5007 58.4634 15.931C58.4634 16.4564 58.4424 16.9731 58.415 17.4955C58.3951 17.8733 58.2978 18.2742 58.3181 18.6608C58.3349 18.982 58.3324 19.4008 58.5495 19.6426C58.8359 19.9615 59.1871 19.9717 59.6019 19.9717C59.9671 19.9717 60.377 19.559 60.6192 19.3162C60.7733 19.1618 60.9625 19.0462 61.0579 18.855C61.1745 18.6213 61.2248 18.3191 61.2248 18.0565C61.2248 17.6552 61.1479 17.2222 61.1791 16.8319C61.223 16.2818 61.2248 15.7369 61.2248 15.1838C61.2248 14.7971 61.2248 14.4105 61.2248 14.0239C61.2248 13.6429 61.1628 13.2884 61.2221 12.9018C61.2753 12.5553 61.445 12.2662 61.5182 11.9361C61.5886 11.6187 61.9031 11.3128 61.9031 10.9893" stroke="#333333" stroke-width="2.5" stroke-linecap="round"/>
</svg>
